PathFileType	4	(X/Y/Z)	/Users/niels/Desktop/University/Third Semester/Perception and Action/Exam/Gymnastics Motion Tracking/Code for Gym Tracking/Analyzed Data/Webcam_Backflip/id4_5_pure_Sports2D/id4_5_pure_Sports2D_px_person00.trc
DataRate	CameraRate	NumFrames	NumMarkers	Units	OrigDataRate	OrigDataStartFrame	OrigNumFrames
29.81132075471698	29.81132075471698	7	22	m	29.81132075471698	99	159
Frame#	Time	Hip			RHip			RKnee			RAnkle			RBigToe			RSmallToe			RHeel			LHip			LKnee			LAnkle			LBigToe			LSmallToe			LHeel			Neck			Head			Nose			RShoulder			RElbow			RWrist			LShoulder			LElbow			LWrist		
		X1	Y1	Z1	X2	Y2	Z2	X3	Y3	Z3	X4	Y4	Z4	X5	Y5	Z5	X6	Y6	Z6	X7	Y7	Z7	X8	Y8	Z8	X9	Y9	Z9	X10	Y10	Z10	X11	Y11	Z11	X12	Y12	Z12	X13	Y13	Z13	X14	Y14	Z14	X15	Y15	Z15	X16	Y16	Z16	X17	Y17	Z17	X18	Y18	Z18	X19	Y19	Z19	X20	Y20	Z20	X21	Y21	Z21	X22	Y22	Z22
99	3.320886075949367	0.6871450957891101	-0.6216945663273116	0.0	0.6785556808274756	-0.6230367821983449	0.0	0.7463143994992327	-0.714147490815561	0.0	0.6897624825343125	-0.7995726392474459	0.0	0.7223348756650694	-0.8219046268544385	0.0	0.7136898015465377	-0.8227667463804677	0.0	0.6756548563305291	-0.8129997878955527	0.0	0.6950791391631684	-0.6210704674628826	0.0	0.7449525979735722	-0.7119762864374357	0.0	0.692273308464343	-0.7978498710069845	0.0	0.7197716448556735	-0.8190150766960262	0.0	0.7161433588588332	-0.8169158653293761	0.0	0.6772095372101237	-0.8080678794362433	0.0	0.7062544635816317	-0.47647283401998375	0.0	0.7406390089248874	-0.4046904957819089	0.0	0.7390183295495257	-0.4447266460677473	0.0	0.6926440668146169	-0.48438916548810595	0.0	0.7352685711874705	-0.4442334158771311	0.0	0.757782411389939	-0.3973726397063512	0.0	0.7163865075202585	-0.4839244239837761	0.0	0.7609556724805746	-0.45579527852496926	0.0	0.7955345803223299	-0.4095962885079317	0.0
100	3.354430379746835	0.6841946782143393	-0.5991316512935534	0.0	0.6752480391169411	-0.6004615603802709	0.0	0.7442926377161269	-0.6930646316440009	0.0	0.6894658469127019	-0.7822790368109775	0.0	0.7235836508688095	-0.8057732888808433	0.0	0.7152290149984761	-0.8061753127355855	0.0	0.6755269743169097	-0.7971900004987541	0.0	0.6929900103594508	-0.5988693602452696	0.0	0.7423366672751596	-0.6907510397950927	0.0	0.6931675009191796	-0.7801420688762344	0.0	0.7234286051877548	-0.8027765954589846	0.0	0.7205243928261068	-0.7997386947435419	0.0	0.6782721004135642	-0.7916261525959001	0.0	0.7057032654753026	-0.4551207261599353	0.0	0.7417580112540562	-0.38389329104174813	0.0	0.7396578246129382	-0.42297681274666277	0.0	0.6914756589696835	-0.46213644826790234	0.0	0.7367369343003752	-0.4238656149209304	0.0	0.7630591950095241	-0.38011069008854687	0.0	0.7173054953041004	-0.46262149558748367	0.0	0.7629565983709705	-0.43813456467401435	0.0	0.8010959651499584	-0.3947981076825718	0.0
101	3.3879746835443036	0.6815408126861857	-0.5759414473431055	0.0	0.6722107144135925	-0.5771423049165401	0.0	0.7397755165904233	-0.6723215487128411	0.0	0.6884562763257909	-0.7659715895665418	0.0	0.7242845148058291	-0.7904765146692464	0.0	0.7161316794744271	-0.7906986985268163	0.0	0.6751174437133508	-0.7820917570623573	0.0	0.6911609206995168	-0.5759005188068175	0.0	0.7382853351476771	-0.6701682918968072	0.0	0.6935519100060035	-0.7633723697137256	0.0	0.7263803307259754	-0.7870650298668124	0.0	0.723996519492476	-0.7832802385052823	0.0	0.6789605935557816	-0.7757751905936064	0.0	0.7053932081991864	-0.4330330519934449	0.0	0.7420199129661752	-0.3620435666964114	0.0	0.7400381199490562	-0.40010038893291827	0.0	0.691013560100764	-0.4390620687018175	0.0	0.7384409489860675	-0.4008536529327302	0.0	0.7677937825814027	-0.35881561784550803	0.0	0.7181884128397051	-0.4403215633151899	0.0	0.7645040576795838	-0.417065220574232	0.0	0.8053437390123568	-0.37624873695856403	0.0
102	3.421518987341772	0.6791198466682904	-0.5540795201511816	0.0	0.6696096283615209	-0.5550285096163808	0.0	0.7332544329200746	-0.653406953307516	0.0	0.6869727663277775	-0.7517347291228417	0.0	0.7243133747674677	-0.7773162675700069	0.0	0.7162094544462356	-0.7776228622614108	0.0	0.674540069494543	-0.768813543045926	0.0	0.6891475499335007	-0.554101128142156	0.0	0.7325688068319954	-0.6517476836889327	0.0	0.6930232053715105	-0.7490138203143978	0.0	0.7278445650471808	-0.7735179700144559	0.0	0.7258451153047567	-0.7692649782662745	0.0	0.6789701113465899	-0.7620174956043394	0.0	0.7050932482436172	-0.41197672038697225	0.0	0.7412284703250515	-0.34078650901527036	0.0	0.7398889317446413	-0.3778397720783372	0.0	0.6911759147483397	-0.41706033536209597	0.0	0.7401034642732627	-0.37739748715074223	0.0	0.7712822886509604	-0.335486681845222	0.0	0.7185987013040854	-0.41876554134687033	0.0	0.7654842572651502	-0.39458848561413834	0.0	0.8079032498525432	-0.3556211040410224	0.0
103	3.4550632911392403	0.6769348283856306	-0.534938497675496	0.0	0.6676750467754742	-0.5355736651995083	0.0	0.7253172827009006	-0.6373347668387702	0.0	0.6851316533497669	-0.7400781235394647	0.0	0.7236012619867478	-0.7669860130387425	0.0	0.7153671391272086	-0.7675627770803792	0.0	0.6737150562049283	-0.7579323841738106	0.0	0.6867031450172848	-0.5348666594658437	0.0	0.7252704202051339	-0.6363501500637354	0.0	0.6913073546252727	-0.7376770192554687	0.0	0.7273929770176112	-0.763081106114434	0.0	0.7256758854474515	-0.7585456505563687	0.0	0.6780486104059426	-0.7510883129695354	0.0	0.7046261462545468	-0.3932258179627156	0.0	0.7394952345525164	-0.3214135890713833	0.0	0.7391585487068406	-0.35754211353460946	0.0	0.6918756177341762	-0.39753804660760056	0.0	0.7415495704785431	-0.35544123738715694	0.0	0.7732954490882903	-0.3123516676786157	0.0	0.7181070403672267	-0.3992659027918955	0.0	0.7656486564805747	-0.3724669455778385	0.0	0.8084464278799773	-0.33448723306755235	0.0
104	3.488607594936709	0.6750128193056484	-0.5193829256801042	0.0	0.6665753976039946	-0.5197385873977497	0.0	0.7165203405209484	-0.6246732123448364	0.0	0.6828869429784243	-0.731128697248664	0.0	0.7220624740507923	-0.7595678969540338	0.0	0.7135594182985164	-0.7604709186774549	0.0	0.6724097863518029	-0.7496250728932381	0.0	0.6838004953196786	-0.5190744458072476	0.0	0.7166870065308797	-0.6243633083136781	0.0	0.6883000657377377	-0.72936327928576	0.0	0.7250247961137158	-0.7559170854761547	0.0	0.7234328274400869	-0.7511474189015217	0.0	0.6760503672388235	-0.7430870493280569	0.0	0.7039453867411444	-0.37756599822949843	0.0	0.7371372015347782	-0.30485167347947534	0.0	0.7379910079312801	-0.340124269157523	0.0	0.6930277111677391	-0.3813885688665122	0.0	0.7427568457228226	-0.3364981791206384	0.0	0.7740470188960141	-0.2914462279104391	0.0	0.7165137714566868	-0.3827390155572035	0.0	0.7648346587553856	-0.3519940769597625	0.0	0.8067969729956249	-0.31404077956585996	0.0
105	3.522151898734177	0.6733783399589461	-0.5078792046393367	0.0	0.6663123049291542	-0.5080607860138238	0.0	0.7073530513636731	-0.6156786620178102	0.0	0.6800874476807811	-0.7248502096612798	0.0	0.7195657950757559	-0.7548071078672293	0.0	0.7107815345812489	-0.7559532810346723	0.0	0.6703802244203497	-0.7438773357690361	0.0	0.6806032324235951	-0.5072289718709845	0.0	0.7072433638044325	-0.6159287314826977	0.0	0.6841149663772149	-0.7238487967780036	0.0	0.7210601438405451	-0.7517121145348901	0.0	0.7193869089549556	-0.7467090455018528	0.0	0.6730116347340738	-0.7378029831553562	0.0	0.70314947649211	-0.36541018452041757	0.0	0.7344176356701925	-0.29171205797140254	0.0	0.736567019902935	-0.3261656654557196	0.0	0.6944898677593468	-0.3691077388168607	0.0	0.7437774947642903	-0.32143602036168	0.0	0.7739051296113025	-0.2740571310515971	0.0	0.7139924335908016	-0.36980403172833837	0.0	0.7631766873990787	-0.33418576574092956	0.0	0.8031704350168596	-0.2951918761683318	0.0
